<?xml version="1.0" encoding="UTF-8" standalone="no"?>
<!-- Created with Inkscape (http://www.inkscape.org/) -->

<svg
   width="154.98338mm"
   height="172.7592mm"
   viewBox="0 0 154.98338 172.7592"
   version="1.1"
   id="svg1"
   xml:space="preserve"
   xmlns:inkscape="http://www.inkscape.org/namespaces/inkscape"
   xmlns:sodipodi="http://sodipodi.sourceforge.net/DTD/sodipodi-0.dtd"
   xmlns="http://www.w3.org/2000/svg"
   xmlns:svg="http://www.w3.org/2000/svg"><sodipodi:namedview
     id="namedview1"
     pagecolor="#ffffff"
     bordercolor="#000000"
     borderopacity="0.25"
     inkscape:showpageshadow="2"
     inkscape:pageopacity="0.0"
     inkscape:pagecheckerboard="0"
     inkscape:deskcolor="#d1d1d1"
     inkscape:document-units="mm" /><defs
     id="defs1" /><g
     inkscape:label="Layer 1"
     inkscape:groupmode="layer"
     id="layer1"
     transform="translate(-27.477088,-63.971541)"><path
       style="fill:#b91d70;stroke:none"
       d="m 103.67708,64.141397 c -2.08068,0.627319 -4.089669,2.555916 -5.82083,3.827673 -2.786021,2.046677 -5.7275,4.004455 -8.731249,5.715897 C 77.146396,80.510003 62.159796,86.222041 48.114788,85.378084 43.04533,85.073467 38.291422,83.930627 33.29792,83.333086 c -1.891898,-0.226391 -3.582783,0.166188 -4.370118,2.068882 -1.277385,3.086972 -0.844267,7.798781 -0.925428,11.111482 -0.157803,6.44111 -0.525287,12.85421 -0.525287,19.31458 0,22.83175 3.633867,47.13235 14.633748,67.46875 6.577885,12.16108 15.791275,22.97628 26.376667,31.81513 8.300922,6.93131 17.585117,12.8938 27.252082,17.72729 3.055328,1.52765 7.262116,4.71226 10.847916,3.69477 8.04912,-2.28399 16.08716,-8.13966 23.01875,-12.6649 14.69566,-9.59395 27.63261,-22.19854 36.54925,-37.39729 11.07431,-18.87655 15.576,-41.83496 16.10671,-63.5 0.23792,-9.7131 0.43438,-19.4168 -0.48814,-29.104163 -0.25139,-2.639761 0.42729,-7.403198 -1.44153,-9.496222 -2.41275,-2.702225 -9.48317,0.313498 -12.62629,0.689428 -9.53734,1.140692 -19.74676,-0.815906 -28.83959,-3.554515 -8.67931,-2.614068 -17.14969,-6.850147 -24.60624,-11.987107 -2.76661,-1.905972 -6.91783,-6.482953 -10.58334,-5.377804 M 105,73.716409 c 1.45992,0 3.33849,1.899852 4.49792,2.695249 3.31777,2.276072 6.74052,4.428218 10.31875,6.275069 11.10891,5.733742 23.15251,10.032074 35.71874,10.892632 4.29323,0.294007 8.71433,0.08343 12.96459,-0.505492 1.15976,-0.160698 3.66489,-1.151642 4.49057,0.0841 1.29638,1.940256 0.66796,6.622028 0.82477,8.911733 0.59552,8.69601 0.84859,17.50027 0.0212,26.19375 -1.05809,11.11794 -2.28571,22.04629 -5.52705,32.80833 -6.42231,21.32362 -19.92533,38.79233 -37.64494,52.02389 -5.69789,4.25475 -11.9006,8.21027 -18.25625,11.41057 -2.05809,1.03634 -4.79344,3.04919 -7.14375,3.15724 -2.22717,0.1024 -5.20387,-2.05394 -7.143746,-3.02636 C 91.463957,221.30011 85.023685,217.22859 79.070835,212.76433 62.293,200.18207 48.997171,183.28478 42.490963,163.18845 38.56995,151.07724 37.048971,138.50384 36.184655,125.8822 c -0.531032,-7.75465 -0.06956,-15.53184 0.02266,-23.28333 0.02782,-2.33844 -0.476288,-7.466424 0.842136,-9.4409 0.805336,-1.206079 3.309778,-0.293861 4.450551,-0.105339 4.289225,0.708807 8.627106,0.600965 12.964583,0.549385 12.0497,-0.143289 24.989696,-5.004507 35.454165,-10.66398 3.627281,-1.961734 7.221426,-4.064206 10.58333,-6.455953 1.16101,-0.825967 3.00248,-2.765674 4.49792,-2.765674 M 42.02917,98.630117 c 0,11.570033 -1.057599,23.074983 0.04492,34.660413 2.766595,29.07187 14.282356,55.58155 38.05508,73.58846 5.537331,4.19432 11.384592,8.0084 17.462499,11.37954 1.993321,1.10559 5.119361,3.34373 7.408331,3.50857 2.45303,0.17667 5.89559,-2.48615 7.9375,-3.65678 6.95127,-3.98519 13.69913,-8.381 19.84375,-13.53826 6.24253,-5.23946 11.89914,-10.99858 16.73898,-17.57111 14.02766,-19.04965 18.67181,-43.19489 19.24047,-66.41042 0.17801,-7.26729 -0.73001,-14.4632 -0.78987,-21.69583 -3.78901,0 -7.57302,0.501423 -11.37708,0.240909 -10.23956,-0.701217 -20.69662,-3.263302 -30.1625,-7.232359 -5.22119,-2.189255 -10.23594,-4.796638 -15.08125,-7.719667 -1.60948,-0.970952 -4.43917,-3.723174 -6.35,-3.675987 -1.68775,0.04168 -3.89425,2.178097 -5.291664,3.054546 -3.746856,2.349985 -7.641499,4.505216 -11.641666,6.3947 -10.151714,4.795169 -21.109031,7.901826 -32.279165,8.982768 -4.364648,0.422374 -9.461575,0.713458 -13.758333,-0.309493 m 109.257388,9.189993 c 1.63034,0.2339 1.10998,3.17401 0.96157,4.30376 -0.50846,3.87072 -0.82983,7.7696 -1.36314,11.64166 -0.15085,1.09519 0.004,3.21365 -0.83765,4.03591 -0.83433,0.81551 -1.85025,0.0357 -2.44923,-0.6251 -1.25829,-1.38806 -2.65191,-4.7422 -4.7627,-3.06047 -6.77608,5.39875 -12.65665,12.5709 -18.78541,18.69966 -2.31167,2.31167 -5.21922,6.56055 -8.46667,7.5002 -1.81566,0.52538 -3.59595,-0.83446 -5.02708,-1.77041 -3.39663,-2.2214 -6.67759,-4.62417 -10.05417,-6.87631 -1.140986,-0.76103 -3.883397,-3.39681 -5.291661,-2.6579 -2.533477,1.3293 -4.857762,4.69343 -6.879166,6.71484 -4.807612,4.80762 -9.745383,9.48852 -14.552083,14.2875 -1.764249,1.76142 -5.307444,7.03277 -8.202083,5.79695 -6.020845,-2.5705 -0.805902,-7.37231 1.852084,-10.03029 L 83.039584,140.1697 c 2.825603,-2.8256 5.538688,-6.0813 8.73125,-8.4932 5.296107,-4.00106 12.878106,4.11401 17.197916,6.99389 1.04821,0.69881 4.10645,3.63708 5.36721,3.07476 2.18851,-0.97612 4.3217,-4.12061 6.00987,-5.80879 4.06035,-4.06034 8.09691,-8.12823 12.17105,-12.17185 1.53028,-1.51881 4.24662,-3.49297 5.04872,-5.54379 0.82525,-2.11007 -5.32222,-2.38318 -4.7921,-4.76354 0.32076,-1.4403 2.82222,-1.74979 3.9765,-2.12706 3.28744,-1.07447 6.70106,-1.77428 10.05416,-2.61236 1.30256,-0.32556 3.13626,-1.09078 4.4824,-0.89765 m -4.21781,79.97459 c -3.89125,1.1502 -9.16848,0.26458 -13.22917,0.26458 v -31.48542 c 0,-4.20781 -1.12107,-10.24585 0.11474,-14.25872 0.35142,-1.14108 1.54351,-1.0817 2.5311,-1.0869 2.38108,-0.0126 4.76264,-0.001 7.14374,-2.1e-4 0.90326,4e-4 2.09765,-0.16192 2.75077,0.61327 0.69604,0.82611 0.42423,2.35525 0.42423,3.35548 v 8.73125 21.96042 c 0,3.88461 -0.4457,8.08032 0.26459,11.90625 M 124.05,188.05928 h -13.22917 v -21.43125 c 0,-1.8167 -0.79029,-6.1473 0.42423,-7.58881 0.65316,-0.77521 1.84749,-0.61287 2.75077,-0.61327 1.98257,-9.1e-4 9.00242,-1.06208 9.89452,1.08711 0.9087,2.18917 0.15965,6.07366 0.15965,8.43789 v 20.10833 m -22.75417,0 H 88.066668 v -16.40417 l 0.271931,-6.57539 2.638485,-0.83294 h 7.408333 l 2.638483,0.83294 0.27193,6.57539 v 16.40417 m -22.754162,0 H 65.577085 v -8.73125 l 0.271931,-3.66497 2.638486,-0.83295 h 7.14375 l 2.638485,0.83295 0.271931,3.66497 z"
       id="path1" /></g></svg>
