<svg id="svg" version="1.1" xmlns="http://www.w3.org/2000/svg" xmlns:xlink="http://www.w3.org/1999/xlink" width="400" height="400" viewBox="0, 0, 400,400"><g id="svgg"><path id="path0" d="M129.200 25.720 C 129.090 25.837,127.920 25.976,126.600 26.028 C 125.280 26.080,124.020 26.251,123.800 26.408 C 123.580 26.564,122.148 26.816,120.617 26.966 C 119.087 27.116,117.647 27.388,117.417 27.569 C 117.188 27.751,116.100 28.029,115.000 28.187 C 113.900 28.345,112.820 28.613,112.600 28.781 C 111.931 29.294,109.600 29.611,109.600 29.190 C 109.600 28.976,109.232 28.800,108.782 28.800 C 108.231 28.800,108.003 29.023,108.082 29.485 C 108.155 29.908,107.894 30.230,107.400 30.325 C 106.960 30.410,106.060 30.703,105.400 30.977 C 104.740 31.251,102.670 32.065,100.800 32.785 C 98.930 33.506,96.990 34.351,96.489 34.664 C 95.987 34.977,95.388 35.116,95.157 34.973 C 94.925 34.830,94.459 35.108,94.121 35.591 C 93.731 36.148,93.231 36.397,92.753 36.272 C 92.275 36.147,92.000 36.284,92.000 36.647 C 92.000 36.962,91.595 37.377,91.100 37.570 C 90.605 37.762,89.517 38.388,88.682 38.960 C 87.847 39.532,86.992 40.000,86.782 40.000 C 86.572 40.000,86.400 40.177,86.400 40.392 C 86.400 40.608,85.963 40.894,85.429 41.028 C 84.895 41.163,84.361 41.526,84.241 41.836 C 84.122 42.146,83.749 42.400,83.413 42.400 C 83.076 42.400,82.800 42.568,82.800 42.773 C 82.800 42.978,82.412 43.269,81.938 43.420 C 81.463 43.570,80.678 44.123,80.192 44.647 C 79.706 45.171,79.140 45.600,78.935 45.600 C 78.730 45.600,78.121 46.132,77.581 46.783 C 77.042 47.434,76.390 47.974,76.133 47.983 C 75.523 48.005,66.005 57.523,65.983 58.133 C 65.974 58.390,65.434 59.042,64.783 59.581 C 64.132 60.121,63.600 60.730,63.600 60.935 C 63.600 61.140,63.171 61.706,62.647 62.192 C 62.123 62.678,61.570 63.463,61.420 63.938 C 61.269 64.412,60.978 64.800,60.773 64.800 C 60.568 64.800,60.400 65.076,60.400 65.413 C 60.400 65.749,60.146 66.122,59.836 66.241 C 59.526 66.361,59.163 66.895,59.028 67.429 C 58.894 67.963,58.608 68.400,58.392 68.400 C 58.177 68.400,58.000 68.676,58.000 69.013 C 58.000 69.349,57.741 69.724,57.424 69.846 C 57.108 69.967,56.734 70.592,56.593 71.233 C 56.452 71.875,56.185 72.400,56.000 72.400 C 55.815 72.400,55.545 72.940,55.400 73.600 C 55.255 74.260,54.985 74.800,54.800 74.800 C 54.615 74.800,54.345 75.340,54.200 76.000 C 54.055 76.660,53.771 77.200,53.568 77.200 C 53.366 77.200,53.199 77.425,53.198 77.700 C 53.196 77.975,52.933 78.703,52.612 79.317 C 52.292 79.931,51.913 81.056,51.770 81.817 C 51.628 82.578,51.362 83.200,51.180 83.200 C 50.998 83.200,50.728 84.010,50.579 85.000 C 50.431 85.990,50.163 86.800,49.983 86.800 C 49.804 86.800,49.534 87.790,49.383 89.000 C 49.232 90.210,48.957 91.200,48.774 91.200 C 48.590 91.200,48.318 92.280,48.168 93.600 C 48.019 94.920,47.754 96.000,47.580 96.000 C 47.406 96.000,47.148 97.215,47.006 98.700 C 46.864 100.185,46.535 101.832,46.274 102.360 C 45.912 103.095,45.822 127.121,45.892 204.360 C 46.005 329.486,46.005 341.548,45.891 355.000 C 45.747 372.033,45.248 371.600,65.010 371.600 C 73.207 371.600,78.043 371.453,78.200 371.200 C 78.336 370.980,78.892 370.800,79.436 370.800 C 79.980 370.800,80.529 370.530,80.655 370.200 C 80.782 369.870,81.093 369.600,81.347 369.600 C 81.798 369.600,82.468 368.742,83.489 366.854 C 83.826 366.231,84.000 364.212,84.000 360.931 C 84.000 357.714,84.142 356.040,84.400 356.200 C 84.620 356.336,84.800 356.156,84.800 355.800 C 84.800 355.444,84.632 355.256,84.428 355.383 C 83.623 355.880,83.559 353.951,83.537 328.656 C 83.513 301.626,83.538 301.075,84.827 300.386 C 85.252 300.158,85.600 299.637,85.600 299.229 C 85.600 298.369,84.546 297.814,84.257 298.522 C 84.151 298.785,84.049 274.655,84.032 244.900 C 84.005 198.909,84.084 190.800,84.557 190.800 C 84.864 190.800,85.218 191.070,85.345 191.400 C 85.471 191.730,85.759 192.000,85.984 192.000 C 86.353 192.000,87.669 192.994,89.006 194.281 C 89.280 194.545,89.616 194.650,89.752 194.514 C 89.889 194.378,90.000 194.477,90.000 194.733 C 90.000 194.990,90.276 195.200,90.613 195.200 C 90.949 195.200,91.324 195.459,91.446 195.776 C 91.567 196.092,92.192 196.466,92.833 196.607 C 93.475 196.748,94.000 197.026,94.000 197.224 C 94.000 197.422,94.450 197.698,95.000 197.836 C 95.550 197.974,96.000 198.228,96.000 198.400 C 96.000 198.572,96.493 198.837,97.096 198.988 C 97.699 199.140,98.284 199.384,98.396 199.532 C 98.650 199.866,103.189 202.052,105.600 203.000 C 106.590 203.390,107.967 203.954,108.660 204.254 C 109.354 204.554,110.198 204.800,110.537 204.800 C 110.876 204.800,111.258 204.970,111.386 205.177 C 111.514 205.384,112.427 205.675,113.414 205.823 C 114.402 205.971,115.298 206.235,115.405 206.409 C 115.513 206.583,116.546 206.852,117.700 207.007 C 118.855 207.163,119.993 207.445,120.230 207.635 C 120.466 207.826,121.996 208.100,123.630 208.245 C 125.263 208.390,126.835 208.695,127.123 208.922 C 127.426 209.162,131.171 209.414,136.058 209.522 C 140.900 209.629,144.244 209.853,143.936 210.048 C 143.536 210.301,143.527 210.389,143.900 210.394 C 144.813 210.405,145.001 210.323,144.900 209.960 C 144.845 209.762,145.925 209.585,147.300 209.566 C 148.675 209.548,150.790 209.376,152.000 209.184 C 153.210 208.992,155.460 208.641,157.000 208.404 C 158.540 208.166,160.070 207.857,160.400 207.717 C 160.730 207.577,161.900 207.239,163.000 206.967 C 167.772 205.787,168.621 205.533,168.980 205.177 C 169.189 204.970,169.669 204.800,170.048 204.800 C 170.426 204.800,171.245 204.547,171.868 204.238 C 173.335 203.510,176.226 202.257,178.000 201.580 C 178.770 201.286,179.511 200.883,179.648 200.684 C 179.784 200.485,180.369 200.294,180.947 200.261 C 181.526 200.227,182.000 199.975,182.000 199.700 C 182.000 199.425,182.276 199.200,182.613 199.200 C 182.949 199.200,183.324 198.941,183.446 198.624 C 183.567 198.308,184.192 197.934,184.833 197.793 C 185.475 197.652,186.000 197.390,186.000 197.212 C 186.000 197.033,186.450 196.774,187.000 196.636 C 187.550 196.498,188.000 196.208,188.000 195.992 C 188.000 195.777,188.276 195.600,188.613 195.600 C 188.949 195.600,189.329 195.330,189.455 195.000 C 189.582 194.670,189.900 194.400,190.161 194.400 C 190.612 194.400,191.359 193.897,193.280 192.300 C 193.743 191.915,194.320 191.592,194.561 191.583 C 194.803 191.574,195.442 191.034,195.981 190.383 C 196.521 189.732,197.120 189.200,197.312 189.200 C 197.504 189.200,198.158 188.705,198.766 188.100 C 199.373 187.495,200.831 186.190,202.007 185.200 C 203.182 184.210,204.910 182.590,205.846 181.600 C 210.525 176.656,212.000 174.963,212.000 174.535 C 212.000 174.278,212.521 173.837,213.157 173.555 C 213.860 173.244,214.233 172.829,214.106 172.499 C 213.991 172.200,214.280 171.598,214.749 171.162 C 215.217 170.726,215.600 170.125,215.600 169.827 C 215.600 169.529,215.870 169.182,216.200 169.055 C 216.530 168.929,216.800 168.549,216.800 168.213 C 216.800 167.876,216.968 167.600,217.173 167.600 C 217.378 167.600,217.672 167.195,217.827 166.700 C 217.981 166.205,218.219 165.710,218.354 165.600 C 218.684 165.332,219.494 164.028,220.095 162.800 C 220.364 162.250,220.682 161.710,220.802 161.600 C 221.215 161.221,224.000 155.378,224.000 154.889 C 224.000 154.620,224.178 154.400,224.395 154.400 C 224.613 154.400,224.906 153.680,225.046 152.800 C 225.187 151.920,225.459 151.200,225.651 151.200 C 225.843 151.200,226.001 150.885,226.002 150.500 C 226.004 150.115,226.267 149.297,226.588 148.683 C 226.908 148.069,227.287 146.942,227.430 146.179 C 227.574 145.416,227.836 144.701,228.014 144.591 C 228.192 144.481,228.462 143.223,228.615 141.796 C 228.768 140.368,229.038 139.200,229.215 139.200 C 229.392 139.200,229.665 137.985,229.821 136.500 C 229.978 135.015,230.262 133.700,230.452 133.577 C 230.643 133.454,230.917 131.152,231.062 128.462 C 231.206 125.772,231.477 123.476,231.662 123.362 C 232.104 123.089,232.103 110.911,231.662 110.638 C 231.476 110.523,231.203 108.323,231.056 105.749 C 230.909 103.175,230.636 100.873,230.449 100.634 C 230.262 100.395,229.989 99.132,229.842 97.826 C 229.696 96.521,229.421 95.261,229.233 95.026 C 229.044 94.792,228.763 93.655,228.607 92.500 C 228.452 91.345,228.179 90.400,228.000 90.400 C 227.821 90.400,227.551 89.500,227.400 88.400 C 227.249 87.300,226.976 86.400,226.794 86.400 C 226.612 86.400,226.336 85.821,226.181 85.113 C 226.025 84.405,225.763 83.550,225.597 83.213 C 224.549 81.083,223.600 78.857,223.600 78.532 C 223.600 77.869,220.158 71.291,219.554 70.800 C 219.419 70.690,219.181 70.195,219.027 69.700 C 218.872 69.205,218.578 68.800,218.373 68.800 C 218.168 68.800,218.000 68.524,218.000 68.187 C 218.000 67.851,217.746 67.478,217.436 67.359 C 217.126 67.239,216.763 66.705,216.628 66.171 C 216.494 65.637,216.208 65.200,215.992 65.200 C 215.777 65.200,215.600 64.924,215.600 64.587 C 215.600 64.251,215.330 63.871,215.000 63.745 C 214.670 63.618,214.400 63.290,214.400 63.016 C 214.400 62.741,213.995 62.051,213.500 61.482 C 207.422 54.490,206.800 53.726,206.800 53.247 C 206.800 53.001,206.608 52.845,206.373 52.900 C 205.968 52.995,204.162 51.486,200.182 47.729 C 199.208 46.810,198.049 45.942,197.606 45.802 C 197.163 45.661,196.800 45.373,196.800 45.160 C 196.800 44.948,196.485 44.659,196.100 44.517 C 195.715 44.376,195.023 43.862,194.562 43.377 C 194.102 42.891,193.337 42.370,192.862 42.220 C 192.388 42.069,192.000 41.778,192.000 41.573 C 192.000 41.368,191.739 41.200,191.420 41.200 C 191.101 41.200,190.696 40.975,190.520 40.700 C 190.222 40.235,189.393 39.723,186.116 37.984 C 185.409 37.609,184.959 37.172,185.116 37.013 C 185.272 36.854,185.130 36.779,184.800 36.846 C 184.003 37.008,182.400 35.949,182.400 35.261 C 182.400 34.939,182.153 34.809,181.800 34.945 C 180.877 35.299,180.025 34.813,180.263 34.067 C 180.422 33.569,180.380 33.533,180.100 33.923 C 179.691 34.492,177.600 34.186,177.600 33.557 C 177.600 33.360,177.375 33.194,177.100 33.186 C 176.825 33.179,175.880 32.825,175.000 32.400 C 174.120 31.975,173.175 31.621,172.900 31.614 C 172.625 31.606,172.040 31.240,171.600 30.800 C 171.160 30.360,170.800 30.163,170.800 30.363 C 170.800 30.751,169.261 30.484,168.600 29.980 C 168.380 29.812,167.343 29.547,166.295 29.391 C 165.247 29.235,164.302 28.965,164.195 28.791 C 164.087 28.617,163.054 28.348,161.900 28.193 C 160.745 28.037,159.615 27.762,159.389 27.580 C 159.163 27.398,157.543 27.125,155.789 26.972 C 154.035 26.819,152.366 26.509,152.081 26.282 C 151.546 25.858,129.578 25.318,129.200 25.720 M149.570 65.548 C 149.696 65.752,150.835 66.048,152.100 66.205 C 153.365 66.363,154.400 66.640,154.400 66.822 C 154.400 67.003,155.210 67.272,156.200 67.421 C 157.190 67.569,158.000 67.842,158.000 68.027 C 158.000 68.212,158.630 68.482,159.400 68.626 C 160.170 68.771,160.800 69.035,160.800 69.213 C 160.800 69.391,161.340 69.655,162.000 69.800 C 162.660 69.945,163.200 70.215,163.200 70.400 C 163.200 70.585,163.785 70.868,164.500 71.028 C 165.215 71.189,165.575 71.398,165.300 71.493 C 164.363 71.818,164.797 72.267,166.047 72.267 C 166.795 72.267,167.443 72.533,167.667 72.933 C 167.872 73.300,168.301 73.600,168.620 73.600 C 168.939 73.600,169.201 73.735,169.203 73.900 C 169.204 74.065,169.879 74.650,170.703 75.200 C 171.526 75.750,172.645 76.695,173.189 77.300 C 173.733 77.905,174.408 78.400,174.689 78.400 C 174.970 78.400,175.201 78.535,175.202 78.700 C 175.203 78.865,176.455 80.319,177.984 81.930 C 179.514 83.542,180.870 85.190,180.998 85.593 C 181.126 85.996,181.494 86.427,181.815 86.550 C 182.137 86.674,182.400 86.973,182.400 87.216 C 182.400 87.459,182.694 87.951,183.054 88.311 C 183.467 88.724,183.545 89.018,183.265 89.112 C 182.955 89.215,182.969 89.416,183.312 89.787 C 183.580 90.078,183.947 90.227,184.127 90.118 C 184.307 90.009,184.553 90.298,184.674 90.760 C 184.794 91.222,185.038 91.600,185.215 91.600 C 185.392 91.600,185.655 92.140,185.800 92.800 C 185.945 93.460,186.215 94.000,186.400 94.000 C 186.585 94.000,186.855 94.540,187.000 95.200 C 187.145 95.860,187.415 96.400,187.600 96.400 C 187.785 96.400,188.062 96.985,188.214 97.700 C 188.367 98.415,188.631 99.180,188.800 99.400 C 188.969 99.620,189.239 100.430,189.400 101.200 C 189.561 101.970,189.827 102.780,189.992 103.000 C 190.614 103.832,190.849 106.922,190.315 107.261 C 189.928 107.507,189.963 107.589,190.457 107.594 C 191.095 107.600,191.606 108.381,191.594 109.333 C 191.590 109.633,191.465 109.606,191.244 109.257 C 190.993 108.861,190.823 108.839,190.615 109.176 C 190.252 109.763,190.677 110.923,191.148 110.632 C 191.343 110.511,191.619 110.994,191.761 111.703 C 191.912 112.460,191.849 113.050,191.609 113.130 C 191.017 113.328,191.100 115.599,191.700 115.606 C 192.039 115.610,192.007 115.749,191.600 116.037 C 191.148 116.356,191.124 116.511,191.500 116.664 C 192.094 116.905,192.176 118.000,191.600 118.000 C 191.019 118.000,191.108 119.896,191.700 120.136 C 192.076 120.289,192.052 120.445,191.600 120.770 C 191.146 121.095,191.118 121.277,191.485 121.514 C 192.126 121.930,190.836 131.946,190.006 133.000 C 189.832 133.220,189.564 134.165,189.410 135.100 C 189.256 136.035,188.968 136.800,188.770 136.800 C 188.572 136.800,188.294 137.520,188.154 138.400 C 188.013 139.280,187.755 140.000,187.581 140.000 C 187.406 140.000,187.145 140.540,187.000 141.200 C 186.855 141.860,186.590 142.400,186.412 142.400 C 186.233 142.400,185.963 142.893,185.812 143.496 C 185.660 144.099,185.416 144.684,185.268 144.796 C 184.929 145.054,184.139 146.307,183.500 147.600 C 183.229 148.150,182.600 149.048,182.103 149.596 C 181.606 150.144,181.200 150.710,181.200 150.855 C 181.200 151.000,180.300 152.038,179.200 153.161 C 178.100 154.285,177.200 155.383,177.200 155.602 C 177.200 155.821,177.065 156.003,176.900 156.006 C 176.735 156.009,175.542 157.009,174.248 158.229 C 172.681 159.706,171.684 160.364,171.260 160.202 C 170.911 160.068,170.739 160.072,170.879 160.213 C 171.222 160.555,169.955 162.000,169.311 162.000 C 169.030 162.000,168.800 162.177,168.800 162.392 C 168.800 162.608,168.350 162.898,167.800 163.036 C 167.250 163.174,166.800 163.430,166.800 163.604 C 166.800 163.779,166.305 164.130,165.700 164.384 C 163.822 165.175,162.800 165.777,162.800 166.095 C 162.800 166.263,162.439 166.400,161.999 166.400 C 161.558 166.400,160.525 166.760,159.704 167.200 C 158.884 167.640,157.894 168.000,157.506 168.000 C 157.118 168.000,156.800 168.160,156.800 168.355 C 156.800 168.550,155.945 168.836,154.900 168.992 C 153.855 169.148,152.808 169.433,152.574 169.625 C 152.339 169.818,151.079 170.085,149.774 170.219 C 148.468 170.353,147.035 170.637,146.590 170.851 C 144.820 171.699,126.635 170.606,126.002 169.613 C 125.891 169.439,124.855 169.168,123.700 169.011 C 122.545 168.854,121.600 168.562,121.600 168.362 C 121.600 168.163,121.285 167.999,120.900 167.998 C 120.515 167.996,119.717 167.743,119.127 167.435 C 118.537 167.127,117.502 166.754,116.827 166.606 C 116.152 166.458,115.600 166.185,115.600 166.000 C 115.600 165.815,115.060 165.545,114.400 165.400 C 113.740 165.255,113.200 164.985,113.200 164.800 C 113.200 164.615,112.675 164.348,112.033 164.207 C 111.392 164.066,110.767 163.692,110.646 163.376 C 110.524 163.059,110.149 162.800,109.813 162.800 C 109.476 162.800,109.195 162.665,109.189 162.500 C 109.183 162.335,108.463 161.759,107.589 161.220 C 106.715 160.680,106.000 160.095,106.000 159.920 C 106.000 159.744,105.802 159.600,105.561 159.600 C 105.079 159.600,97.200 151.858,97.200 151.385 C 97.200 151.224,96.771 150.694,96.247 150.208 C 95.723 149.722,95.170 148.937,95.020 148.462 C 94.869 147.988,94.578 147.600,94.373 147.600 C 94.168 147.600,94.000 147.324,94.000 146.987 C 94.000 146.651,93.741 146.276,93.424 146.154 C 93.108 146.033,92.734 145.408,92.593 144.767 C 92.452 144.125,92.185 143.600,92.000 143.600 C 91.815 143.600,91.545 143.060,91.400 142.400 C 91.255 141.740,90.985 141.200,90.800 141.200 C 90.615 141.200,90.342 140.648,90.194 139.973 C 90.046 139.298,89.673 138.263,89.365 137.673 C 89.057 137.083,88.804 136.285,88.802 135.900 C 88.801 135.515,88.637 135.200,88.438 135.200 C 88.238 135.200,87.951 134.300,87.800 133.200 C 87.649 132.101,87.376 131.109,87.194 130.996 C 87.012 130.884,86.737 129.578,86.583 128.096 C 86.429 126.613,86.118 125.170,85.893 124.889 C 85.342 124.202,85.349 109.789,85.900 109.108 C 86.126 108.829,86.439 107.475,86.595 106.100 C 86.751 104.725,87.041 103.600,87.239 103.600 C 87.438 103.600,87.601 103.015,87.602 102.300 C 87.604 101.585,87.874 100.484,88.202 99.854 C 88.531 99.224,88.806 98.504,88.814 98.254 C 88.821 98.004,89.175 97.080,89.600 96.200 C 90.025 95.320,90.379 94.375,90.386 94.100 C 90.394 93.825,90.566 93.600,90.768 93.600 C 90.971 93.600,91.255 93.060,91.400 92.400 C 91.545 91.740,91.810 91.200,91.988 91.200 C 92.167 91.200,92.426 90.750,92.564 90.200 C 92.702 89.650,92.992 89.200,93.208 89.200 C 93.423 89.200,93.600 89.013,93.600 88.784 C 93.600 88.310,95.245 85.869,95.700 85.667 C 95.865 85.593,96.000 85.350,96.000 85.127 C 96.000 84.903,96.810 83.898,97.800 82.894 C 98.790 81.890,99.600 80.944,99.600 80.793 C 99.600 80.350,101.284 78.670,102.800 77.600 C 103.570 77.057,104.581 76.205,105.046 75.706 C 105.511 75.208,106.056 74.800,106.257 74.800 C 106.458 74.800,106.930 74.440,107.307 74.000 C 107.684 73.560,108.264 73.200,108.596 73.200 C 108.928 73.200,109.200 73.020,109.200 72.800 C 109.200 72.580,109.476 72.400,109.813 72.400 C 110.149 72.400,110.524 72.141,110.646 71.824 C 110.767 71.508,111.392 71.134,112.033 70.993 C 112.675 70.852,113.200 70.585,113.200 70.400 C 113.200 70.215,113.740 69.945,114.400 69.800 C 115.060 69.655,115.600 69.387,115.600 69.203 C 115.600 69.020,116.320 68.749,117.200 68.600 C 118.080 68.451,118.800 68.181,118.800 68.000 C 118.800 67.819,119.519 67.549,120.398 67.400 C 121.277 67.252,122.091 66.976,122.207 66.788 C 122.324 66.600,123.269 66.333,124.309 66.196 C 125.349 66.058,126.562 65.770,127.004 65.556 C 129.061 64.562,148.952 64.555,149.570 65.548 M353.800 74.000 C 354.022 74.698,353.872 74.800,352.627 74.800 C 351.842 74.800,351.200 74.962,351.200 75.159 C 351.200 75.357,349.940 75.645,348.400 75.800 C 346.860 75.955,345.600 76.222,345.600 76.394 C 345.600 76.566,344.432 76.832,343.004 76.985 C 341.577 77.138,340.319 77.408,340.209 77.585 C 340.100 77.762,339.021 78.030,337.812 78.181 C 336.602 78.332,335.522 78.602,335.412 78.781 C 335.301 78.959,334.041 79.231,332.610 79.384 C 331.179 79.537,329.919 79.807,329.810 79.984 C 329.701 80.161,328.441 80.431,327.010 80.584 C 325.579 80.737,324.317 81.011,324.205 81.192 C 324.093 81.373,322.921 81.647,321.601 81.800 C 320.280 81.953,319.200 82.216,319.200 82.384 C 319.200 82.552,317.993 82.813,316.517 82.964 C 315.042 83.116,313.628 83.411,313.376 83.620 C 313.123 83.830,312.170 84.030,311.258 84.066 C 309.635 84.130,308.519 86.385,310.100 86.407 C 310.835 86.417,312.504 88.308,312.205 88.791 C 312.065 89.019,312.276 89.311,312.675 89.439 C 314.465 90.015,315.519 90.753,317.624 92.900 C 318.864 94.165,319.993 95.200,320.134 95.200 C 320.600 95.200,322.000 96.569,322.000 97.025 C 322.000 97.485,319.215 100.657,315.000 104.997 C 313.680 106.356,311.864 108.272,310.964 109.255 C 310.065 110.238,309.094 110.965,308.809 110.870 C 308.523 110.774,308.401 110.878,308.539 111.101 C 308.880 111.654,308.001 112.702,302.414 118.402 C 299.766 121.104,297.600 123.546,297.600 123.830 C 297.600 124.114,297.256 124.455,296.836 124.589 C 296.415 124.722,295.802 125.229,295.472 125.716 C 294.495 127.156,292.477 129.200,292.032 129.200 C 291.804 129.200,291.299 129.692,290.909 130.293 C 289.985 131.718,288.902 132.800,288.400 132.800 C 288.180 132.800,288.000 133.067,288.000 133.392 C 288.000 133.718,287.550 134.098,287.000 134.236 C 286.450 134.374,286.000 134.737,286.000 135.043 C 286.000 135.350,285.859 135.600,285.686 135.600 C 285.514 135.600,281.347 139.560,276.427 144.400 C 271.507 149.240,267.328 153.200,267.141 153.200 C 266.953 153.200,266.800 153.470,266.800 153.800 C 266.800 154.130,266.560 154.400,266.266 154.400 C 265.972 154.400,264.277 155.840,262.497 157.600 C 260.718 159.360,259.139 160.800,258.988 160.800 C 258.837 160.800,257.778 161.745,256.635 162.900 C 255.492 164.055,253.666 165.719,252.578 166.598 C 251.490 167.478,250.126 168.710,249.546 169.337 C 248.788 170.157,248.432 170.326,248.278 169.939 C 248.157 169.636,248.049 169.794,248.032 170.300 C 248.014 170.795,247.793 171.200,247.539 171.200 C 247.285 171.200,246.024 172.280,244.737 173.600 C 243.449 174.920,242.260 176.000,242.095 176.000 C 241.929 176.000,240.602 177.125,239.146 178.500 C 235.423 182.016,234.066 183.133,233.816 182.883 C 233.697 182.764,233.600 182.850,233.600 183.075 C 233.600 183.589,232.112 185.203,230.800 186.111 C 229.546 186.979,225.482 190.626,222.122 193.900 C 220.710 195.275,219.412 196.400,219.236 196.400 C 219.060 196.400,217.980 197.390,216.835 198.600 C 215.691 199.810,214.598 200.800,214.406 200.800 C 214.214 200.800,213.745 201.112,213.363 201.494 C 212.982 201.875,212.249 202.133,211.735 202.065 C 211.221 201.998,210.800 202.136,210.800 202.371 C 210.800 202.607,211.099 202.800,211.465 202.800 C 211.916 202.800,211.588 203.316,210.448 204.400 C 209.523 205.280,208.671 206.000,208.555 206.000 C 208.438 206.000,208.057 206.286,207.708 206.635 C 207.347 206.996,206.671 207.192,206.137 207.090 C 205.622 206.992,205.200 207.066,205.200 207.255 C 205.200 207.445,205.411 207.600,205.670 207.600 C 205.928 207.600,205.714 208.052,205.195 208.605 C 204.422 209.428,204.346 209.700,204.775 210.105 C 205.192 210.498,205.338 210.497,205.483 210.100 C 205.584 209.825,205.938 209.600,206.270 209.600 C 206.602 209.600,209.105 208.520,211.832 207.200 C 214.560 205.880,216.973 204.800,217.195 204.800 C 217.418 204.800,217.600 204.640,217.600 204.443 C 217.600 204.247,218.031 203.979,218.557 203.846 C 219.084 203.714,221.455 202.525,223.827 201.203 C 226.199 199.881,228.289 198.800,228.470 198.800 C 228.652 198.800,228.800 198.634,228.800 198.432 C 228.800 198.229,229.340 197.945,230.000 197.800 C 230.660 197.655,231.200 197.390,231.200 197.212 C 231.200 197.033,231.672 196.768,232.248 196.624 C 232.825 196.479,233.558 196.099,233.877 195.780 C 234.237 195.420,234.828 195.292,235.429 195.443 C 236.020 195.591,236.400 195.513,236.400 195.243 C 236.400 195.000,236.175 194.800,235.900 194.799 C 235.398 194.799,237.588 193.463,238.900 192.970 C 239.285 192.825,239.600 192.562,239.600 192.385 C 239.600 192.208,240.140 191.945,240.800 191.800 C 241.460 191.655,242.000 191.371,242.000 191.168 C 242.000 190.966,242.257 190.800,242.571 190.800 C 242.886 190.800,243.389 190.554,243.690 190.253 C 243.991 189.952,244.671 189.568,245.200 189.400 C 245.729 189.232,246.390 188.893,246.667 188.647 C 248.004 187.463,248.406 187.214,249.366 186.973 C 249.935 186.830,250.400 186.565,250.400 186.384 C 250.400 186.202,250.805 185.928,251.300 185.773 C 251.795 185.619,252.290 185.381,252.400 185.246 C 252.666 184.919,253.963 184.111,255.200 183.502 C 255.750 183.231,256.438 182.782,256.729 182.505 C 257.019 182.227,257.437 182.000,257.657 182.000 C 257.877 182.000,258.308 181.775,258.615 181.500 C 259.875 180.370,260.302 180.085,261.131 179.822 C 261.609 179.670,262.000 179.378,262.000 179.173 C 262.000 178.968,262.276 178.800,262.613 178.800 C 262.949 178.800,263.322 178.546,263.441 178.236 C 263.561 177.926,264.095 177.563,264.629 177.428 C 265.163 177.294,265.600 177.008,265.600 176.792 C 265.600 176.577,265.876 176.400,266.213 176.400 C 266.549 176.400,266.922 176.146,267.041 175.836 C 267.161 175.526,267.695 175.163,268.229 175.028 C 268.763 174.894,269.200 174.608,269.200 174.392 C 269.200 174.177,269.476 174.000,269.813 174.000 C 270.149 174.000,270.522 173.746,270.641 173.436 C 270.761 173.126,271.295 172.763,271.829 172.628 C 272.363 172.494,272.800 172.208,272.800 171.992 C 272.800 171.777,273.076 171.600,273.413 171.600 C 273.749 171.600,274.124 171.341,274.246 171.024 C 274.367 170.708,274.993 170.333,275.637 170.192 C 276.280 170.051,276.704 169.768,276.578 169.565 C 276.452 169.361,276.676 169.074,277.075 168.927 C 277.474 168.780,278.196 168.241,278.681 167.730 C 279.165 167.218,279.723 166.800,279.920 166.800 C 280.117 166.800,280.648 166.485,281.101 166.100 C 281.555 165.715,282.319 165.130,282.800 164.800 C 283.567 164.274,284.299 163.710,285.800 162.490 C 286.020 162.311,286.830 161.722,287.600 161.182 C 288.370 160.642,289.144 159.975,289.320 159.700 C 289.496 159.425,289.825 159.200,290.051 159.200 C 290.277 159.200,290.966 158.705,291.583 158.100 C 292.200 157.495,293.110 156.730,293.606 156.400 C 294.102 156.070,294.798 155.506,295.154 155.146 C 295.509 154.786,296.430 154.112,297.200 153.647 C 297.970 153.183,298.471 152.802,298.313 152.801 C 297.979 152.800,300.564 150.155,301.107 149.943 C 301.502 149.790,305.709 146.173,307.788 144.200 C 308.484 143.540,309.851 142.300,310.826 141.445 C 317.001 136.033,334.000 119.400,334.000 118.771 C 334.000 118.420,337.896 114.400,338.236 114.400 C 338.946 114.400,341.600 117.306,341.600 118.083 C 341.600 118.481,341.818 118.691,342.112 118.579 C 342.393 118.471,344.116 119.925,345.944 121.814 C 350.083 126.091,350.620 125.969,350.753 120.724 C 350.779 119.692,350.960 118.748,351.156 118.627 C 351.352 118.506,351.642 116.426,351.800 114.004 C 351.958 111.582,352.226 109.600,352.396 109.600 C 352.566 109.600,352.836 107.665,352.996 105.300 C 353.156 102.935,353.419 100.910,353.581 100.800 C 353.742 100.690,354.077 98.530,354.325 96.000 C 355.091 88.201,355.788 82.619,356.048 82.200 C 356.185 81.980,356.425 80.450,356.582 78.800 C 356.740 77.150,357.051 75.580,357.274 75.311 C 357.559 74.968,357.469 74.611,356.972 74.115 C 356.465 73.608,356.217 73.548,356.099 73.904 C 355.863 74.610,354.400 74.521,354.400 73.800 C 354.400 73.470,354.208 73.200,353.973 73.200 C 353.728 73.200,353.654 73.541,353.800 74.000 M357.200 76.157 C 357.200 76.464,357.458 76.813,357.773 76.934 C 358.159 77.082,358.328 76.900,358.288 76.377 C 358.222 75.500,357.200 75.294,357.200 76.157 M282.100 195.476 C 282.485 195.576,283.115 195.576,283.500 195.476 C 283.885 195.375,283.570 195.293,282.800 195.293 C 282.030 195.293,281.715 195.375,282.100 195.476 M196.893 230.000 C 196.893 230.770,196.975 231.085,197.076 230.700 C 197.176 230.315,197.176 229.685,197.076 229.300 C 196.975 228.915,196.893 229.230,196.893 230.000 " stroke="none" fill="#fb0a8e" fill-rule="evenodd"></path><path id="path1" d="M309.100 154.832 C 308.715 155.056,308.400 155.511,308.400 155.843 C 308.400 156.176,308.220 156.336,308.000 156.200 C 307.734 156.036,307.600 178.915,307.600 224.534 C 307.600 289.479,307.563 293.129,306.900 293.386 C 306.233 293.644,306.233 293.682,306.900 294.173 C 307.761 294.807,307.833 296.400,307.000 296.400 C 306.670 296.400,306.400 296.240,306.400 296.043 C 306.400 295.847,305.907 295.563,305.304 295.412 C 304.701 295.260,304.116 295.016,304.004 294.868 C 303.692 294.458,302.325 293.625,301.100 293.098 C 300.495 292.838,300.000 292.484,300.000 292.312 C 300.000 292.141,299.743 292.000,299.429 292.000 C 299.114 292.000,298.611 291.754,298.310 291.453 C 298.009 291.152,297.347 290.774,296.839 290.612 C 294.180 289.768,294.400 294.072,294.400 242.973 L 294.400 196.924 293.566 196.170 C 292.290 195.014,255.666 194.918,254.207 196.066 C 253.288 196.789,253.278 196.787,253.449 195.899 C 253.610 195.067,253.584 195.075,253.111 196.000 C 252.709 196.786,252.600 203.643,252.600 228.104 C 252.600 250.934,252.481 259.163,252.151 259.037 C 251.904 258.942,250.867 258.739,249.846 258.586 C 248.825 258.433,247.900 258.161,247.789 257.982 C 247.678 257.803,246.600 257.533,245.394 257.382 C 244.187 257.231,243.200 256.949,243.200 256.754 C 243.200 256.559,242.345 256.397,241.300 256.394 C 240.255 256.391,239.130 256.213,238.800 256.000 C 238.438 255.766,238.389 255.610,238.677 255.606 C 239.476 255.596,239.338 227.180,238.527 224.696 L 237.905 222.793 218.296 222.896 L 198.686 223.000 197.843 224.129 C 197.023 225.227,196.997 225.704,196.881 241.300 C 196.745 259.644,196.839 260.293,199.752 261.024 C 200.328 261.168,200.800 261.436,200.800 261.619 C 200.800 261.802,201.610 262.072,202.600 262.221 C 203.590 262.369,204.400 262.650,204.400 262.845 C 204.400 263.040,204.760 263.200,205.200 263.200 C 205.644 263.200,206.000 263.467,206.000 263.800 C 206.000 264.130,205.739 264.400,205.420 264.400 C 205.101 264.400,204.696 264.629,204.520 264.910 C 204.344 265.190,203.750 265.711,203.200 266.067 C 202.650 266.424,201.573 267.283,200.806 267.977 L 199.413 269.238 199.072 268.217 C 198.885 267.655,198.580 267.289,198.395 267.403 C 198.209 267.518,197.945 267.258,197.808 266.826 C 197.671 266.394,197.234 265.938,196.838 265.812 C 196.441 265.686,195.595 265.052,194.958 264.403 C 194.321 263.753,193.575 263.217,193.300 263.211 C 193.025 263.205,192.800 263.023,192.800 262.808 C 192.800 262.592,192.350 262.302,191.800 262.164 C 191.250 262.026,190.800 261.767,190.800 261.588 C 190.800 261.410,190.260 261.145,189.600 261.000 C 188.940 260.855,188.400 260.585,188.400 260.400 C 188.400 260.215,187.860 259.945,187.200 259.800 C 186.540 259.655,186.000 259.387,186.000 259.203 C 186.000 259.020,185.235 258.744,184.300 258.590 C 183.365 258.436,182.402 258.150,182.159 257.955 C 181.917 257.760,180.612 257.484,179.259 257.343 C 177.907 257.202,176.800 256.939,176.800 256.759 C 176.800 255.838,157.459 256.977,156.222 257.971 C 155.990 258.157,155.036 258.436,154.102 258.590 C 153.168 258.744,152.312 259.018,152.200 259.200 C 152.088 259.382,151.277 259.652,150.398 259.800 C 149.519 259.949,148.800 260.228,148.800 260.421 C 148.800 260.614,147.855 260.904,146.700 261.066 C 145.545 261.227,144.933 261.430,145.340 261.517 C 146.096 261.677,142.786 263.560,141.700 263.587 C 141.425 263.594,141.200 263.760,141.200 263.957 C 141.200 264.153,140.735 264.430,140.166 264.573 C 139.597 264.716,138.760 265.179,138.305 265.602 C 137.851 266.026,137.326 266.278,137.139 266.163 C 136.953 266.047,136.800 266.143,136.800 266.376 C 136.800 266.609,136.539 266.800,136.220 266.800 C 135.901 266.800,135.496 267.025,135.320 267.300 C 134.961 267.861,133.845 268.609,132.500 269.191 C 132.005 269.405,131.600 269.765,131.600 269.990 C 131.600 270.216,131.328 270.400,130.996 270.400 C 130.664 270.400,130.084 270.760,129.707 271.200 C 129.330 271.640,128.807 272.000,128.544 272.000 C 128.282 272.000,128.007 272.135,127.933 272.300 C 127.860 272.465,126.765 273.305,125.500 274.166 C 124.235 275.028,123.200 275.883,123.200 276.066 C 123.200 276.250,123.022 276.400,122.804 276.400 C 122.429 276.400,117.995 279.606,116.871 280.690 C 116.581 280.971,116.167 281.200,115.952 281.200 C 115.738 281.200,115.145 281.650,114.635 282.200 C 114.125 282.750,113.526 283.200,113.303 283.200 C 113.080 283.200,112.667 283.478,112.385 283.818 C 112.103 284.158,111.640 284.347,111.356 284.239 C 111.073 284.130,110.730 284.391,110.594 284.819 C 110.458 285.248,109.922 285.705,109.402 285.835 C 108.883 285.966,108.361 286.326,108.241 286.636 C 108.122 286.946,107.749 287.200,107.413 287.200 C 107.076 287.200,106.800 287.368,106.800 287.573 C 106.800 287.778,106.422 288.066,105.961 288.213 C 105.499 288.359,104.810 288.776,104.429 289.139 C 102.972 290.530,101.579 291.600,101.226 291.600 C 101.023 291.600,100.619 291.827,100.329 292.105 C 100.038 292.382,99.350 292.831,98.800 293.102 C 97.527 293.729,96.383 294.463,95.688 295.100 C 95.388 295.375,94.963 295.600,94.743 295.600 C 94.523 295.600,94.092 295.825,93.785 296.100 C 92.509 297.245,92.091 297.517,91.169 297.805 C 90.636 297.972,90.110 298.219,90.000 298.354 C 89.686 298.741,86.164 300.400,85.656 300.400 C 85.405 300.400,85.200 300.580,85.200 300.800 C 85.200 301.020,84.941 301.200,84.624 301.200 C 83.549 301.200,83.516 302.041,83.537 328.434 C 83.557 353.726,83.626 355.878,84.397 355.402 C 84.586 355.285,84.822 355.507,84.923 355.895 C 85.097 356.561,85.110 356.561,85.154 355.900 C 85.193 355.310,85.608 355.200,87.800 355.200 C 89.230 355.200,90.400 355.042,90.400 354.848 C 90.400 354.654,92.470 354.367,95.000 354.208 C 97.530 354.050,99.600 353.784,99.600 353.618 C 99.600 353.451,100.715 353.197,102.078 353.055 C 103.440 352.913,104.655 352.641,104.778 352.452 C 104.900 352.263,106.035 351.981,107.300 351.825 C 108.565 351.670,109.600 351.396,109.600 351.217 C 109.600 351.037,110.410 350.769,111.400 350.621 C 112.390 350.472,113.200 350.205,113.200 350.027 C 113.200 349.848,113.920 349.587,114.800 349.446 C 115.680 349.306,116.400 348.992,116.400 348.749 C 116.400 348.494,116.820 348.387,117.388 348.496 C 117.931 348.599,118.304 348.569,118.217 348.427 C 118.129 348.286,118.630 347.938,119.329 347.655 C 120.028 347.372,121.340 346.794,122.244 346.371 C 123.148 345.947,124.093 345.600,124.344 345.600 C 124.595 345.600,124.802 345.465,124.804 345.300 C 124.806 345.135,125.796 344.561,127.004 344.024 C 128.212 343.487,129.200 342.872,129.200 342.657 C 129.200 342.442,129.324 342.390,129.475 342.541 C 129.920 342.986,123.449 348.940,122.031 349.390 C 121.615 349.522,121.173 349.894,121.050 350.215 C 120.926 350.537,120.549 350.800,120.213 350.800 C 119.876 350.800,119.600 350.939,119.600 351.108 C 119.600 351.278,118.790 351.859,117.800 352.400 C 116.810 352.941,116.000 353.522,116.000 353.692 C 116.000 353.861,115.705 354.000,115.344 354.000 C 114.984 354.000,113.859 354.507,112.844 355.126 C 110.540 356.533,109.600 356.892,109.600 356.364 C 109.600 356.138,109.417 356.066,109.193 356.204 C 108.970 356.342,108.887 356.618,109.010 356.816 C 109.285 357.261,107.406 357.775,106.823 357.414 C 106.590 357.270,106.400 357.414,106.400 357.734 C 106.400 358.352,105.578 358.800,104.444 358.800 C 103.100 358.800,102.158 359.816,102.855 360.513 C 103.660 361.317,126.061 361.732,131.048 361.036 C 135.842 360.366,138.718 359.867,139.400 359.586 C 140.755 359.030,143.221 358.733,143.106 359.141 C 143.048 359.349,143.180 359.520,143.400 359.520 C 143.620 359.520,143.755 359.358,143.700 359.160 C 143.645 358.962,143.870 358.800,144.200 358.800 C 144.530 358.800,144.800 358.643,144.800 358.452 C 144.800 358.260,145.693 357.985,146.784 357.840 C 147.875 357.695,148.862 357.423,148.979 357.235 C 149.095 357.046,149.998 356.771,150.986 356.623 C 151.973 356.475,152.874 356.205,152.986 356.022 C 153.099 355.840,153.823 355.572,154.596 355.427 C 155.368 355.282,156.000 355.015,156.000 354.833 C 156.000 354.651,156.720 354.387,157.600 354.246 C 158.480 354.106,159.200 353.813,159.200 353.595 C 159.200 353.378,159.425 353.194,159.700 353.186 C 159.975 353.179,160.920 352.825,161.800 352.400 C 162.680 351.975,163.625 351.621,163.900 351.614 C 164.175 351.606,164.400 351.434,164.400 351.232 C 164.400 351.029,164.940 350.745,165.600 350.600 C 166.260 350.455,166.800 350.150,166.800 349.922 C 166.800 349.693,167.178 349.605,167.640 349.726 C 168.101 349.847,168.380 349.847,168.259 349.725 C 167.908 349.374,169.009 348.463,170.123 348.184 C 170.683 348.043,171.239 347.674,171.359 347.364 C 171.478 347.054,171.851 346.800,172.187 346.800 C 172.524 346.800,172.800 346.640,172.800 346.443 C 172.800 346.247,173.250 345.974,173.800 345.836 C 174.350 345.698,174.800 345.408,174.800 345.192 C 174.800 344.977,175.076 344.800,175.413 344.800 C 175.749 344.800,176.126 344.537,176.250 344.215 C 176.373 343.894,176.845 343.513,177.299 343.368 C 177.753 343.224,178.522 342.677,179.008 342.153 C 179.494 341.629,180.102 341.200,180.358 341.200 C 180.615 341.200,180.924 340.941,181.046 340.625 C 181.173 340.294,181.535 340.154,181.899 340.293 C 182.282 340.440,182.430 340.372,182.273 340.118 C 181.989 339.659,183.712 337.600,184.381 337.600 C 184.611 337.600,184.800 337.390,184.800 337.133 C 184.800 336.877,184.905 336.772,185.034 336.901 C 185.315 337.182,190.793 331.605,190.817 331.013 C 190.826 330.786,191.366 330.158,192.017 329.619 C 192.668 329.079,193.200 328.408,193.200 328.126 C 193.200 327.845,193.646 327.503,194.192 327.366 C 194.999 327.164,195.112 326.984,194.799 326.399 C 194.517 325.871,194.572 325.619,195.007 325.453 C 195.333 325.327,195.600 324.949,195.600 324.613 C 195.600 324.276,195.777 324.000,195.992 324.000 C 196.208 324.000,196.498 323.550,196.636 323.000 C 196.774 322.450,197.047 322.000,197.243 322.000 C 197.440 322.000,197.600 321.724,197.600 321.387 C 197.600 321.051,197.865 320.673,198.189 320.549 C 198.513 320.424,198.893 319.712,199.033 318.965 C 199.173 318.218,199.464 317.716,199.679 317.849 C 199.894 317.982,199.977 318.444,199.864 318.877 C 199.716 319.441,199.820 319.601,200.229 319.444 C 200.545 319.323,200.800 319.460,200.800 319.751 C 200.800 320.041,201.160 320.693,201.600 321.200 C 202.040 321.707,202.400 322.365,202.400 322.661 C 202.400 322.958,202.580 323.200,202.800 323.200 C 203.020 323.200,203.200 323.472,203.200 323.804 C 203.200 324.136,203.560 324.716,204.000 325.093 C 204.440 325.470,204.800 325.942,204.800 326.143 C 204.800 326.344,205.259 326.934,205.821 327.454 C 206.382 327.974,206.720 328.400,206.572 328.400 C 206.423 328.400,206.514 328.655,206.772 328.967 C 207.146 329.416,207.094 329.572,206.521 329.720 C 206.002 329.855,206.081 329.922,206.800 329.961 C 208.051 330.027,209.774 331.770,209.442 332.634 C 209.295 333.019,209.383 333.206,209.667 333.111 C 210.256 332.915,214.475 337.156,214.174 337.642 C 214.052 337.839,214.143 338.000,214.376 338.000 C 214.609 338.000,214.800 337.823,214.800 337.607 C 214.800 337.391,215.464 337.859,216.276 338.648 C 217.088 339.436,218.213 340.374,218.776 340.731 C 219.339 341.088,219.944 341.610,220.120 341.890 C 220.296 342.171,220.635 342.400,220.874 342.400 C 221.113 342.400,221.706 342.829,222.192 343.353 C 222.678 343.877,223.464 344.430,223.938 344.580 C 224.632 344.801,224.751 345.057,224.542 345.887 C 224.359 346.618,224.419 346.835,224.748 346.632 C 225.004 346.474,225.109 346.177,224.983 345.972 C 224.856 345.768,225.039 345.600,225.389 345.600 C 225.739 345.600,226.124 345.859,226.246 346.176 C 226.367 346.492,226.992 346.866,227.633 347.007 C 228.275 347.148,228.800 347.426,228.800 347.624 C 228.800 347.822,229.250 348.098,229.800 348.236 C 230.350 348.374,230.800 348.633,230.800 348.812 C 230.800 348.990,231.340 349.255,232.000 349.400 C 232.660 349.545,233.200 349.815,233.200 350.000 C 233.200 350.185,233.740 350.455,234.400 350.600 C 235.060 350.745,235.600 351.015,235.600 351.200 C 235.600 351.385,236.129 351.653,236.775 351.795 C 237.559 351.967,238.082 352.410,238.344 353.126 C 238.615 353.867,238.747 353.975,238.768 353.473 C 238.803 352.669,239.909 352.830,241.389 353.854 C 241.823 354.154,242.723 354.414,243.389 354.432 C 244.055 354.449,244.375 354.554,244.100 354.665 C 243.097 355.070,243.647 355.401,245.401 355.450 C 246.388 355.477,247.422 355.686,247.698 355.914 C 247.974 356.142,248.920 356.458,249.800 356.616 C 250.680 356.775,251.580 357.044,251.800 357.215 C 252.020 357.385,253.055 357.652,254.100 357.808 C 255.145 357.964,256.000 358.250,256.000 358.445 C 256.000 358.640,256.675 358.803,257.500 358.806 C 258.341 358.810,258.790 358.946,258.521 359.117 C 257.874 359.528,258.396 360.172,259.500 360.325 C 260.555 360.472,260.726 359.744,259.700 359.476 C 259.315 359.375,259.675 359.272,260.500 359.246 C 261.325 359.221,262.000 359.380,262.000 359.600 C 262.000 359.820,262.731 360.000,263.624 360.000 C 264.517 360.000,265.164 360.135,265.062 360.300 C 264.960 360.465,265.624 360.633,266.538 360.674 C 267.452 360.714,270.810 360.913,274.000 361.117 C 280.867 361.555,297.741 361.313,297.933 360.774 C 298.007 360.568,298.322 360.400,298.633 360.400 C 298.945 360.400,299.200 360.256,299.200 360.080 C 299.200 359.690,296.835 358.802,295.772 358.794 C 295.118 358.789,295.092 358.723,295.600 358.368 C 296.087 358.027,296.049 357.989,295.400 358.165 C 294.456 358.422,291.842 357.585,290.800 356.693 C 290.397 356.348,289.979 356.154,289.871 356.262 C 289.613 356.521,285.817 354.631,281.185 351.938 C 280.676 351.642,279.926 351.130,279.517 350.800 C 279.108 350.470,278.655 350.200,278.509 350.200 C 278.231 350.200,277.327 349.480,274.867 347.299 C 274.060 346.584,273.085 345.896,272.700 345.772 C 272.315 345.648,272.000 345.288,272.000 344.973 C 272.000 344.658,271.811 344.400,271.581 344.400 C 271.215 344.400,269.200 342.500,269.200 342.154 C 269.200 342.083,269.470 342.129,269.800 342.255 C 270.130 342.382,270.400 342.632,270.400 342.811 C 270.400 342.990,270.940 343.255,271.600 343.400 C 272.260 343.545,272.800 343.815,272.800 344.000 C 272.800 344.185,273.340 344.455,274.000 344.600 C 274.660 344.745,275.200 345.015,275.200 345.200 C 275.200 345.385,275.740 345.655,276.400 345.800 C 277.060 345.945,277.600 346.215,277.600 346.400 C 277.600 346.585,278.140 346.855,278.800 347.000 C 279.460 347.145,280.000 347.427,280.000 347.627 C 280.000 347.827,280.720 348.106,281.600 348.246 C 282.480 348.387,283.200 348.651,283.200 348.833 C 283.200 349.015,283.832 349.282,284.604 349.427 C 285.377 349.572,286.098 349.835,286.207 350.011 C 286.315 350.186,287.123 350.452,288.002 350.600 C 288.881 350.749,289.600 351.014,289.600 351.189 C 289.600 351.364,290.590 351.632,291.800 351.783 C 293.010 351.934,294.000 352.210,294.000 352.397 C 294.000 352.584,295.170 352.862,296.600 353.015 C 298.030 353.168,299.200 353.452,299.200 353.647 C 299.200 353.841,299.560 354.000,300.000 354.000 C 300.440 354.000,300.755 354.135,300.700 354.300 C 300.645 354.465,300.780 354.600,301.000 354.600 C 301.220 354.600,301.354 354.461,301.297 354.290 C 301.186 353.957,307.408 354.314,308.400 354.698 C 309.168 354.996,309.499 355.088,310.024 355.150 C 310.257 355.178,310.344 355.368,310.217 355.572 C 310.091 355.777,310.171 356.059,310.396 356.198 C 310.621 356.337,310.914 356.169,311.046 355.825 C 311.331 355.082,313.247 354.965,313.100 355.700 C 313.007 356.167,313.945 356.278,315.900 356.032 C 316.514 355.955,316.502 355.902,315.800 355.600 C 315.256 355.366,315.986 355.247,318.076 355.228 C 319.768 355.213,321.247 355.047,321.363 354.860 C 321.479 354.673,323.509 354.394,325.874 354.241 C 328.240 354.089,330.271 353.819,330.388 353.642 C 330.504 353.466,331.673 353.198,332.985 353.047 C 334.296 352.896,335.466 352.617,335.585 352.426 C 335.703 352.235,336.655 351.950,337.700 351.794 C 338.745 351.637,339.600 351.365,339.600 351.190 C 339.600 351.014,340.319 350.749,341.198 350.600 C 342.077 350.452,342.885 350.186,342.993 350.011 C 343.102 349.835,343.823 349.572,344.596 349.427 C 345.368 349.282,346.000 349.006,346.000 348.814 C 346.000 348.621,346.540 348.345,347.200 348.200 C 347.860 348.055,348.400 347.785,348.400 347.600 C 348.400 347.415,348.940 347.145,349.600 347.000 C 350.260 346.855,350.800 346.585,350.800 346.400 C 350.800 346.215,351.340 345.945,352.000 345.800 C 352.660 345.655,353.200 345.374,353.200 345.176 C 353.200 344.978,353.650 344.702,354.200 344.564 C 354.750 344.426,355.200 344.153,355.200 343.957 C 355.200 343.760,355.476 343.600,355.813 343.600 C 356.149 343.600,356.529 343.330,356.655 343.000 C 356.782 342.670,357.138 342.400,357.447 342.400 C 357.755 342.400,358.316 342.040,358.693 341.600 C 359.070 341.160,359.608 340.800,359.889 340.800 C 360.170 340.800,360.401 340.665,360.403 340.500 C 360.404 340.335,361.077 339.750,361.898 339.200 C 364.696 337.325,374.400 327.201,374.400 326.157 C 374.400 325.898,374.630 325.597,374.912 325.489 C 375.194 325.381,375.779 324.597,376.212 323.746 C 376.645 322.896,377.225 322.056,377.500 321.880 C 377.775 321.704,378.000 321.299,378.000 320.980 C 378.000 320.661,378.135 320.396,378.300 320.392 C 378.465 320.387,379.050 319.401,379.600 318.200 C 380.150 316.999,380.727 316.013,380.882 316.008 C 381.037 316.004,381.282 315.370,381.426 314.600 C 381.571 313.830,381.841 313.200,382.026 313.200 C 382.212 313.200,382.482 312.568,382.627 311.796 C 382.772 311.023,383.040 310.299,383.222 310.186 C 383.405 310.074,383.675 309.176,383.822 308.191 C 383.970 307.206,384.250 306.400,384.445 306.400 C 384.640 306.400,384.800 306.119,384.800 305.776 C 384.800 305.433,384.935 305.236,385.100 305.338 C 385.265 305.440,385.419 304.866,385.443 304.062 C 385.467 303.258,385.796 301.160,386.173 299.400 C 387.754 292.032,388.208 272.600,386.800 272.600 C 386.380 272.600,386.163 273.110,386.077 274.300 C 386.009 275.235,385.804 276.000,385.622 276.000 C 385.439 276.000,385.171 276.630,385.026 277.400 C 384.882 278.170,384.606 278.800,384.414 278.800 C 384.221 278.800,383.945 279.338,383.801 279.995 C 383.657 280.653,383.372 281.294,383.169 281.419 C 382.966 281.545,382.800 282.002,382.800 282.436 C 382.800 282.870,382.541 283.324,382.224 283.446 C 381.908 283.567,381.534 284.192,381.393 284.833 C 381.252 285.475,380.983 286.000,380.795 286.000 C 380.607 286.000,380.340 286.357,380.202 286.794 C 379.931 287.648,378.969 288.891,376.900 291.062 C 376.185 291.813,375.600 292.601,375.600 292.813 C 375.600 293.026,375.330 293.200,375.000 293.200 C 374.670 293.200,374.400 293.386,374.400 293.613 C 374.400 293.970,373.273 295.152,370.766 297.425 C 370.418 297.741,369.923 298.000,369.666 298.000 C 369.410 298.000,369.197 298.225,369.194 298.500 C 369.190 298.839,369.068 298.810,368.816 298.412 C 368.611 298.088,368.389 297.908,368.322 298.012 C 368.255 298.115,368.008 298.548,367.773 298.973 C 367.539 299.399,366.999 299.939,366.573 300.173 C 366.148 300.408,365.710 300.711,365.600 300.846 C 365.490 300.981,364.995 301.219,364.500 301.373 C 364.005 301.528,363.600 301.802,363.600 301.982 C 363.600 302.163,362.970 302.429,362.200 302.574 C 361.430 302.718,360.800 303.006,360.800 303.213 C 360.800 303.421,360.080 303.706,359.200 303.846 C 358.320 303.987,357.600 304.239,357.600 304.407 C 357.600 304.574,356.925 304.837,356.100 304.991 C 355.275 305.145,354.420 305.411,354.200 305.581 C 353.980 305.751,353.035 306.007,352.100 306.150 L 350.400 306.409 350.400 231.405 C 350.400 187.748,350.251 156.400,350.043 156.400 C 349.847 156.400,349.574 155.950,349.436 155.400 L 349.185 154.400 329.492 154.412 C 316.863 154.420,309.549 154.571,309.100 154.832 M11.799 272.348 C 11.453 273.249,11.613 292.400,11.966 292.400 C 12.139 292.400,12.398 294.055,12.541 296.077 C 12.685 298.099,12.955 299.854,13.142 299.977 C 13.329 300.100,13.610 301.186,13.767 302.390 C 13.923 303.595,14.240 304.807,14.470 305.085 C 14.701 305.362,14.771 306.059,14.627 306.633 C 14.438 307.387,14.574 307.860,15.119 308.338 C 15.776 308.916,16.494 310.700,16.373 311.453 C 16.350 311.595,16.538 311.838,16.790 311.994 C 17.042 312.150,17.282 312.936,17.324 313.741 C 17.373 314.679,17.570 315.140,17.873 315.025 C 18.143 314.923,18.458 315.353,18.605 316.023 C 18.747 316.670,19.029 317.200,19.232 317.200 C 19.434 317.200,19.600 317.405,19.600 317.656 C 19.600 317.906,20.151 319.007,20.825 320.102 C 21.499 321.197,21.954 322.342,21.837 322.647 C 21.701 323.002,21.906 323.200,22.413 323.200 C 22.848 323.200,23.200 323.470,23.200 323.804 C 23.200 324.136,23.560 324.716,24.000 325.093 C 24.440 325.470,24.800 326.128,24.800 326.556 C 24.800 326.983,24.909 327.224,25.042 327.091 C 25.426 326.707,27.200 328.837,27.200 329.682 C 27.200 330.122,27.381 330.335,27.627 330.183 C 27.862 330.038,28.153 330.297,28.274 330.760 C 28.394 331.222,28.666 331.600,28.877 331.600 C 29.089 331.600,29.802 332.140,30.462 332.800 C 31.122 333.460,31.873 334.003,32.131 334.006 C 32.441 334.010,32.419 334.127,32.066 334.351 C 31.660 334.608,31.732 334.741,32.366 334.907 C 32.825 335.027,33.200 335.423,33.200 335.786 C 33.200 336.150,33.365 336.345,33.568 336.220 C 33.770 336.095,34.207 336.264,34.539 336.596 C 34.871 336.928,35.296 337.200,35.483 337.200 C 35.669 337.200,36.130 337.560,36.507 338.000 C 36.884 338.440,37.020 338.800,36.809 338.800 C 36.598 338.800,36.531 339.075,36.660 339.412 C 36.864 339.943,36.961 339.933,37.402 339.330 C 37.863 338.699,37.904 338.721,37.855 339.576 C 37.813 340.286,38.045 340.559,38.800 340.690 C 39.350 340.785,40.039 340.906,40.332 340.960 C 40.625 341.013,40.986 341.224,41.134 341.428 C 41.283 341.633,42.124 342.190,43.002 342.667 C 43.992 343.204,44.555 343.774,44.482 344.167 C 44.332 344.977,44.963 344.979,45.771 344.171 C 46.412 343.531,46.779 307.453,46.161 305.844 C 46.030 305.502,45.282 305.102,44.499 304.955 C 43.715 304.808,42.608 304.444,42.037 304.146 C 41.467 303.848,40.775 303.604,40.500 303.602 C 40.225 303.601,40.000 303.420,40.000 303.200 C 40.000 302.980,39.653 302.800,39.229 302.800 C 38.804 302.800,38.219 302.575,37.929 302.300 C 37.638 302.025,37.047 301.738,36.616 301.663 C 36.185 301.588,35.396 301.183,34.862 300.763 C 34.329 300.343,33.646 300.000,33.346 300.000 C 33.046 300.000,32.800 299.823,32.800 299.608 C 32.800 299.392,32.363 299.106,31.829 298.972 C 31.295 298.837,30.761 298.474,30.641 298.164 C 30.522 297.854,30.235 297.600,30.002 297.600 C 29.463 297.600,25.816 294.217,21.976 290.157 C 21.329 289.473,20.800 288.708,20.800 288.457 C 20.800 288.206,20.623 288.000,20.408 288.000 C 20.192 288.000,19.902 287.550,19.764 287.000 C 19.626 286.450,19.347 286.000,19.144 286.000 C 18.941 286.000,18.656 285.685,18.510 285.300 C 18.364 284.915,18.010 284.362,17.722 284.071 C 17.435 283.781,17.200 283.196,17.200 282.771 C 17.200 282.347,17.034 282.000,16.832 282.000 C 16.629 282.000,16.345 281.460,16.200 280.800 C 16.055 280.140,15.779 279.600,15.586 279.600 C 15.394 279.600,15.112 278.925,14.960 278.100 C 14.809 277.275,14.520 276.493,14.320 276.363 C 14.119 276.232,13.851 275.120,13.725 273.891 C 13.493 271.646,12.403 270.772,11.799 272.348 " stroke="none" fill="#47238a" fill-rule="evenodd"></path></g></svg>